<svg xmlns="http://www.w3.org/2000/svg" width="40" height="40" fill="currentColor" viewBox="0 0 40 40">
  <path d="M10.078 28.798a17.844 17.844 0 0 1 4.869-2.627 16.65 16.65 0 0 1 5.638-.96c1.965 0 3.844.32 5.638.96a17.845 17.845 0 0 1 4.87 2.627 13.22 13.22 0 0 0 2.328-3.972c.555-1.48.832-3.061.832-4.741 0-3.787-1.33-7.012-3.993-9.675-2.663-2.662-5.888-3.993-9.675-3.993-3.787 0-7.012 1.33-9.674 3.993-2.663 2.663-3.994 5.888-3.994 9.675 0 1.68.278 3.26.834 4.741a13.19 13.19 0 0 0 2.327 3.972Zm10.507-7.004c-1.68 0-3.097-.577-4.25-1.73s-1.73-2.57-1.73-4.25c0-1.68.577-3.097 1.73-4.251 1.153-1.153 2.57-1.729 4.25-1.729 1.68 0 3.097.576 4.25 1.729 1.153 1.154 1.73 2.57 1.73 4.25 0 1.68-.577 3.098-1.73 4.251-1.153 1.153-2.57 1.73-4.25 1.73Zm0 15.376c-2.363 0-4.585-.449-6.663-1.346-2.079-.897-3.887-2.114-5.425-3.651-1.537-1.538-2.754-3.346-3.65-5.425-.898-2.079-1.347-4.3-1.347-6.663 0-2.363.449-4.585 1.346-6.663.897-2.079 2.114-3.887 3.651-5.425 1.538-1.537 3.346-2.755 5.425-3.652C16 3.448 18.222 3 20.585 3c2.363 0 4.584.448 6.663 1.345 2.079.897 3.887 2.115 5.425 3.652 1.537 1.538 2.754 3.346 3.65 5.425.898 2.079 1.347 4.3 1.347 6.663 0 2.363-.449 4.584-1.346 6.663-.897 2.079-2.114 3.887-3.651 5.425-1.538 1.537-3.346 2.754-5.425 3.65-2.079.898-4.3 1.347-6.663 1.347Z"/>
</svg>
