<svg xmlns="http://www.w3.org/2000/svg" fill="currentColor" viewBox="0 0 13 13">
  <g clip-path="url(#a)">
    <path d="M6.5.813a5.688 5.688 0 1 0 0 11.375A5.688 5.688 0 0 0 6.5.812Zm0 10.41a4.724 4.724 0 1 1 .002-9.447 4.724 4.724 0 0 1-.002 9.447Z"/>
    <path d="m8.718 8.107-1.81-1.309V3.656a.102.102 0 0 0-.102-.101h-.61a.102.102 0 0 0-.102.101v3.497a.1.1 0 0 0 .042.082l2.1 1.531a.103.103 0 0 0 .142-.021l.363-.496a.101.101 0 0 0-.023-.142Z"/>
  </g>
  <defs>
    <clipPath id="a">
      <path d="M0 0h13v13H0z"/>
    </clipPath>
  </defs>
</svg>
