<svg xmlns="http://www.w3.org/2000/svg" fill="currentColor" viewBox="0 0 40 40">
  <g clip-path="url(#a)">
    <path d="M20 25.333a5.333 5.333 0 1 0 0-10.666 5.333 5.333 0 0 0 0 10.666Z"/>
    <path fill-rule="evenodd" d="M11.95 6.667 15 3.333h10l3.05 3.334h5.283c1.834 0 3.334 1.5 3.334 3.333v7.983a11.667 11.667 0 0 0-3.334-.483c-1.83 0-3.563.422-5.105 1.173-.636-3.97-4.08-7.006-8.228-7.006A8.336 8.336 0 0 0 11.667 20a8.336 8.336 0 0 0 10.043 8.158 11.64 11.64 0 0 0 .723 5.176H6.667A3.343 3.343 0 0 1 3.333 30V10c0-1.833 1.5-3.333 3.334-3.333h5.283Z" clip-rule="evenodd"/>
    <path d="M40 29.521h-5.896v5.896h-1.958V29.52H26.25v-1.959h5.896v-5.895h1.958v5.895H40v1.959Z"/>
  </g>
  <defs>
    <clipPath id="a">
      <path d="M0 0h40v40H0z"/>
    </clipPath>
  </defs>
</svg>
